# xmcd
#
# Track frame offsets: 
#        150
#        28180
#        57404
#        77867
#        104256
#        121389
#        146460
#        169469
#        192582
#        214791
#
# Disc length: 3177 seconds
#
# Revision: 0
# Processed by: cddbd v1.5.2PL0 Copyright (c) Steve Scherf et al.
# Submitted via: ExactAudioCopy v0.95b4
#
DISCID=960c670a
DTITLE=Morrison, Van - The Healing Game
DYEAR=1997
DGENRE=Blues
TTITLE0=Rough God goes riding
TTITLE1=Fire in the belly
TTITLE2=This weight
TTITLE3=Waiting game
TTITLE4=Piper at the gates of dawn
TTITLE5=Burning ground
TTITLE6=It once was my life
TTITLE7=Sometimes we cry
TTITLE8=If you love me
TTITLE9=The healing game
EXTD=
EXTT0=
EXTT1=
EXTT2=
EXTT3=
EXTT4=
EXTT5=
EXTT6=
EXTT7=
EXTT8=
EXTT9=
PLAYORDER=
